<?xml version="1.0" encoding="UTF-8"?>
<svg id="Layer_1" data-name="Layer 1" xmlns="http://www.w3.org/2000/svg" viewBox="0 0 256 256">
  <defs>
    <style>
      .cls-1 {
        fill: #acacac;
      }

      .cls-2 {
        fill: #e22d2e;
      }
    </style>
  </defs>
  <path class="cls-1" d="M66.87,117.69h12.99l4.79,18.24h.32c.23-1.52,.46-3.13,.88-4.6l3.91-13.64h12.86l5.71,34.74h-12.21l-1.71-19.03h-.23c-.23,1.15-.46,2.35-.83,3.45l-5.02,15.57h-7.37l-4.52-14.7c-.37-1.47-.69-2.86-.79-4.33h-.41c-.09,1.38-.18,2.81-.32,4.19l-1.48,14.84h-12.21l5.62-34.74Z"/>
  <path class="cls-1" d="M127.02,139.85l-1.47-6.13c-.37-1.48-.6-3-.83-4.47h-.46l-2.3,10.6h5.07Zm-8.34,12.58h-13.36l12.07-34.74h13.96l12.39,34.74h-13.36l-1.15-4.33h-9.54l-1.01,4.33Z"/>
  <path class="cls-1" d="M178.07,131.97c-.09,5.67-.09,10.41-4.19,14.83-3.69,4.01-9.35,6.18-14.74,6.18-10.6,0-19.16-6.54-19.16-17.69s8.34-18.15,19.26-18.15c6.04,0,14.33,2.99,17.05,8.94l-11.79,4.33c-.97-1.75-2.76-2.67-4.79-2.67-4.51,0-7,3.87-7,8.06,0,3.82,2.4,7.42,6.5,7.42,1.98,0,4.52-.92,5.11-3.04h-5.71v-8.2h19.49Z"/>
  <path class="cls-1" d="M179.01,117.69h12.12l11.33,19.26h.37c-.5-2.9-1.06-5.9-1.06-8.85v-10.41h12.07v34.74h-12.07l-11.1-18.24h-.37c.41,2.39,.78,4.65,.78,6.96v11.29h-12.07v-34.74h0Z"/>
  <path class="cls-1" d="M234.28,139.85l-1.48-6.13c-.37-1.48-.6-3-.83-4.47h-.46l-2.3,10.6h5.07Zm-8.34,12.58h-13.36l12.07-34.74h13.96l12.39,34.74h-13.36l-1.15-4.33h-9.54l-1.01,4.33Z"/>
  <polygon points="41.99 152.46 55.08 152.46 42.48 117.78 32.9 117.78 31.14 122.6 41.99 152.46"/>
  <path class="cls-2" d="M33.12,103.02c-3.51,0-6.36,2.85-6.36,6.36s2.85,6.36,6.36,6.36,6.36-2.85,6.36-6.36-2.85-6.36-6.36-6.36"/>
  <polygon points="5 152.46 24.51 152.46 14.75 125.67 5 152.46"/>
  <polygon points="26.73 152.46 39.82 152.46 27.21 117.78 17.63 117.78 15.87 122.6 26.73 152.46"/>
</svg>